<svg width="158" height="36" viewBox="0 0 158 36" fill="none" xmlns="http://www.w3.org/2000/svg">
<path fill-rule="evenodd" clip-rule="evenodd" d="M38 16.5021L27.2204 5.00415V13.4246L16.5171 21.8556L27.2204 21.8635V28L38 16.5021Z" fill="#4E529A"/>
<path fill-rule="evenodd" clip-rule="evenodd" d="M-5.51732e-05 16.4979L10.7796 27.9958L10.7796 19.6431L21.4829 11.1444L10.7796 11.1365L10.7796 5.00004L-5.51732e-05 16.4979Z" fill="#8C8DFC"/>
<path d="M46.818 11.741V14.975H55.728L46.488 26.228V29H62.163V25.766H52.659L61.899 14.513V11.741H46.818ZM74.4985 18.572L81.9565 12.236V11.741H75.9505L68.7895 18.044H68.4595V5.24H63.6085V29H68.4595V23.687L71.2315 21.344L76.9075 29H82.1545V28.505L74.4985 18.572ZM82.6418 11.708C82.6418 15.47 85.4468 17.483 90.3968 18.638L92.8388 19.199C95.6108 19.826 97.0958 20.519 97.0958 22.499C97.0958 24.479 95.3468 25.799 92.3108 25.799C89.2748 25.799 86.8658 24.479 86.6018 21.179H81.8168V21.674C82.2458 26.096 85.9418 29.396 92.4098 29.396C98.8778 29.396 102.145 26.096 102.145 22.136C102.145 18.176 99.3068 16.328 94.2248 15.14L91.7498 14.579C89.1428 14.018 87.6578 13.325 87.6578 11.477C87.6578 9.629 89.4398 8.441 92.2448 8.441C94.9838 8.441 97.1948 9.629 97.3268 12.731H102.079V12.236C101.782 7.979 98.3498 4.844 92.1458 4.844C85.9088 4.844 82.6418 7.979 82.6418 11.708ZM101.776 11.741V12.236L108.772 29.693L106.396 35.105V35.6H111.511L120.883 12.236V11.741H115.768L111.478 24.413H111.148L106.891 11.741H101.776ZM121.404 11.741V29H126.255V19.331C126.255 16.196 128.103 14.975 130.248 14.975C132.195 14.975 133.383 16.031 133.383 18.143V29H138.234V17.681C138.234 13.589 135.627 11.378 131.733 11.378C128.268 11.378 126.948 13.028 126.387 13.886H126.057V11.741H121.404ZM139.488 20.354C139.488 26.294 143.547 29.396 148.695 29.396C153.711 29.396 156.615 26.426 157.044 22.994V22.499H152.622C152.391 24.215 151.401 25.865 148.794 25.865C146.121 25.865 144.372 23.852 144.372 20.354C144.372 16.856 146.154 14.876 148.794 14.876C151.335 14.876 152.325 16.559 152.49 17.912H156.846V17.417C156.45 14.282 153.645 11.345 148.695 11.345C143.547 11.345 139.488 14.447 139.488 20.354Z" fill="#4E529A"/>
</svg>
