<svg width="172" height="60" viewBox="0 0 172 60" fill="none" xmlns="http://www.w3.org/2000/svg">
  <path d="M35.6328 15.0054L48.3976 30.0026L35.6328 44.9999V15.0054Z" fill="#4E529A"/>
  <path d="M35.7152 36.9962L22.9479 36.9859L35.7152 25.9083L35.7152 36.9962Z" fill="#4E529A"/>
  <path fill-rule="evenodd" clip-rule="evenodd" d="M3.39979 29.9974L16.1646 44.9946L16.1646 34.1092L28.8496 23.0145L16.1646 23.0042L16.1646 15.0001L3.39979 29.9974Z"
        fill="#8C8DFC"/>
  <path d="M71.0332 39.8148H56V35.4815L64.6062 25.8519H56.2216V21.5926H70.8854V25.7037L62.0207 35.5185H71.0332V39.8148Z" fill="#F0F0F0"/>
  <path d="M91.5494 21.5926L84.2729 29.2593L91.6972 39.8148H85.6765L80.8748 32.8519L78.8432 35V39.8148H73.9307V13H78.8432V28.3704L85.1225 21.5926H91.5494Z" fill="#F0F0F0"/>
  <path
    d="M112.916 19.8148L108.336 21.2222C108.163 20.284 107.696 19.4321 106.932 18.6667C106.169 17.9012 105.048 17.5185 103.571 17.5185C102.364 17.5185 101.379 17.8519 100.616 18.5185C99.8527 19.1605 99.471 19.9383 99.471 20.8519C99.471 22.4568 100.419 23.4444 102.315 23.8148L105.972 24.5185C108.287 24.963 110.084 25.8889 111.365 27.2963C112.645 28.7037 113.285 30.358 113.285 32.2593C113.285 34.4321 112.423 36.3333 110.7 37.963C109.001 39.5679 106.711 40.3704 103.83 40.3704C102.18 40.3704 100.69 40.1235 99.3602 39.6296C98.0305 39.1358 96.9593 38.4815 96.1467 37.6667C95.3341 36.8272 94.6939 35.9506 94.226 35.037C93.7828 34.0988 93.5119 33.1358 93.4134 32.1481L98.1413 30.8889C98.2644 32.2963 98.8062 33.4691 99.7665 34.4074C100.751 35.3457 102.118 35.8148 103.866 35.8148C105.196 35.8148 106.23 35.5185 106.969 34.9259C107.733 34.3333 108.114 33.5556 108.114 32.5926C108.114 31.8272 107.831 31.1728 107.265 30.6296C106.723 30.0617 105.947 29.679 104.938 29.4815L101.281 28.7407C99.1632 28.2963 97.4888 27.4198 96.2575 26.1111C95.0263 24.8025 94.4107 23.1728 94.4107 21.2222C94.4107 18.9012 95.2972 16.9506 97.0702 15.3704C98.8677 13.7901 101.022 13 103.534 13C105.036 13 106.378 13.2099 107.56 13.6296C108.742 14.0494 109.69 14.6173 110.404 15.3333C111.118 16.0247 111.672 16.7407 112.066 17.4815C112.46 18.2222 112.744 19 112.916 19.8148Z"
    fill="#F0F0F0"/>
  <path d="M121.561 47H116.353L120.638 37.5185L112.918 21.5926H118.421L123.26 32.2593L127.73 21.5926H132.975L121.561 47Z" fill="#F0F0F0"/>
  <path
    d="M139.755 29.3333V39.8148H134.842V21.5926H139.607V23.8519C140.124 22.963 140.863 22.284 141.823 21.8148C142.784 21.3457 143.793 21.1111 144.852 21.1111C146.995 21.1111 148.62 21.7901 149.728 23.1481C150.861 24.4815 151.427 26.2099 151.427 28.3333V39.8148H146.514V29.1852C146.514 28.0988 146.231 27.2222 145.665 26.5556C145.123 25.8889 144.286 25.5556 143.153 25.5556C142.119 25.5556 141.294 25.9136 140.678 26.6296C140.063 27.3457 139.755 28.2469 139.755 29.3333Z"
    fill="#F0F0F0"/>
  <path
    d="M163.468 25.5926C162.163 25.5926 161.067 26.0494 160.18 26.963C159.294 27.8765 158.851 29.1235 158.851 30.7037C158.851 32.284 159.294 33.5432 160.18 34.4815C161.091 35.3951 162.199 35.8519 163.505 35.8519C164.662 35.8519 165.585 35.5556 166.275 34.963C166.964 34.3457 167.432 33.6173 167.678 32.7778L172 34.2222C171.557 35.9012 170.596 37.3457 169.119 38.5556C167.641 39.7654 165.77 40.3704 163.505 40.3704C160.796 40.3704 158.518 39.4568 156.671 37.6296C154.849 35.7778 153.938 33.4691 153.938 30.7037C153.938 27.9136 154.837 25.6049 156.634 23.7778C158.457 21.9506 160.697 21.037 163.357 21.037C165.672 21.037 167.568 21.642 169.045 22.8519C170.523 24.037 171.471 25.4815 171.889 27.1852L167.494 28.6667C166.903 26.6173 165.561 25.5926 163.468 25.5926Z"
    fill="#F0F0F0"/>
</svg>
