<svg width="179" height="33" viewBox="0 0 179 33" fill="none" xmlns="http://www.w3.org/2000/svg">
<path fill-rule="evenodd" clip-rule="evenodd" d="M38 16.5021L27.2204 5.00415V13.4246L16.5171 21.8556L27.2204 21.8635V28L38 16.5021Z" fill="#4E529A"/>
<path fill-rule="evenodd" clip-rule="evenodd" d="M-5.51732e-05 16.4979L10.7796 27.9958L10.7796 19.6431L21.4829 11.1444L10.7796 11.1365L10.7796 5.00004L-5.51732e-05 16.4979Z" fill="#8C8DFC"/>
<path d="M46.7058 11.741V14.975H55.6158L46.3758 26.228V29H62.0508V25.766H52.5468L61.7868 14.513V11.741H46.7058ZM74.3863 18.572L81.8443 12.236V11.741H75.8383L68.6773 18.044H68.3473V5.24H63.4963V29H68.3473V23.687L71.1193 21.344L76.7953 29H82.0423V28.505L74.3863 18.572ZM81.5396 5.24V5.735L87.7106 29H93.6836L98.1386 12.434H98.4686L102.957 29H108.93L115.101 5.735V5.24H109.986L105.828 23.192H105.498L100.614 5.24H96.0266L91.1426 23.192H90.8126L86.6216 5.24H81.5396ZM115.681 17.549H120.301C120.499 15.701 121.72 14.678 123.898 14.678C126.043 14.678 127.165 15.701 127.165 17.813V18.44L121.39 19.067C117.958 19.43 115.219 20.981 115.219 24.215C115.219 27.383 117.826 29.297 121.621 29.297C124.921 29.297 126.34 27.812 127 26.954H127.33V29H131.95V18.209C131.95 13.655 128.584 11.345 123.964 11.345C119.377 11.345 116.176 13.655 115.681 17.054V17.549ZM120.07 23.852C120.07 22.664 120.994 22.004 122.38 21.872L127.165 21.377V21.641C127.165 24.347 125.317 25.931 122.809 25.931C121.06 25.931 120.07 25.04 120.07 23.852ZM134.053 5.24V29H138.904V5.24H134.053ZM141.137 5.24V29H145.988V5.24H141.137ZM147.362 20.354C147.362 26.228 151.355 29.396 156.569 29.396C161.783 29.396 164.324 26.294 164.951 23.885V23.39H160.463C160.133 24.446 159.176 26.03 156.569 26.03C153.896 26.03 152.345 23.951 152.279 21.509H165.314V20.09C165.314 14.48 161.684 11.345 156.47 11.345C151.355 11.345 147.362 14.48 147.362 20.354ZM152.279 18.572C152.444 16.46 153.863 14.711 156.47 14.711C159.077 14.711 160.397 16.46 160.529 18.572H152.279ZM165.161 11.741V14.975H168.923V24.281C168.923 27.35 170.87 29 173.972 29H178.13V25.601H174.038L173.774 25.337V14.975H177.998V11.741H173.774V6.362H173.279L168.923 8.408V11.741H165.161Z" fill="white"/>
</svg>
