<svg width="20" height="20" viewBox="0 0 20 20" fill="none" xmlns="http://www.w3.org/2000/svg">
<path d="M10.03 .10817V0.118022C10.0398 .167283 10.0398 .226397 10.0398 .28551V7.38896C10.03 7.42837 10.0004 7.43822 9.97088 7.45792C9.76398 7.55645 9.56694 7.64512 9.36004 7.73379C9.07433 7.86187 8.77876 7.9998 8.49304 8.12787L7.45856 8.60078C7.17285 8.72886 6.88713 8.85694 6.61127 8.98502C6.2763 9.14265 5.93147 9.29044 5.59649 9.44807C5.31078 9.57615 5.02506 9.71408 4.7295 9.84216C4.49304 9.95053 4.25659 10.0491 4.02999 10.1574C4.01029 10.1673 3.99058 10.1771 3.97088 10.1771C3.96102 10.1771 3.96102 10.1771 3.95117 10.1673L4.21718 9.72393C4.7295 8.87664 5.23196 8.0392 5.74428 7.19191C6.28615 6.28551 6.83787 5.37911 7.37974 4.4727C7.88221 3.63526 8.39452 2.79783 8.89699 1.96039C9.26152 1.34955 9.6359 .738712 10.0004 .127874C10.0103 .10817 10.0201 .0983177 10.0201 .0786133H10.03C10.0201 .0884655 10.03 .0983177 10.03 .10817Z" fill="#8A92B2"/>
<path d="M16.0789 10.1672L16.0887 10.1771L14.6404 11.0342L10.0887 13.7239C10.069 13.7338 10.0493 13.7436 10.0394 13.7535C10.0099 13.7535 10.0099 13.7239 10.0099 13.714V13.6254V7.53671C10.0099 7.50715 10.0099 7.46774 10.0197 7.43818C10.0296 7.39878 10.0591 7.40863 10.0887 7.41848C10.2168 7.47759 10.3547 7.53671 10.4828 7.59582C10.867 7.77316 11.2513 7.9505 11.6355 8.11799C11.9705 8.26577 12.2956 8.42341 12.6306 8.57119C12.9656 8.71897 13.3005 8.87661 13.6355 9.02439C13.9212 9.15247 14.2168 9.2904 14.5025 9.41848C14.7882 9.54656 15.0838 9.68449 15.3695 9.81257C15.5961 9.91109 15.8227 10.0195 16.0493 10.118C16.0493 10.1475 16.0591 10.1574 16.0789 10.1672Z" fill="#454A75"/>
<path d="M10.0296 19.8718C10.0296 19.8816 10.0198 19.8915 10.0198 19.9013H10.0099C10.0099 19.8816 9.99021 19.8718 9.98036 19.8521C9.36952 18.9949 8.75869 18.1279 8.14785 17.2708C7.52716 16.3939 6.89662 15.5072 6.27593 14.6304C5.67494 13.7831 5.06411 12.926 4.46312 12.0787C4.30549 11.8521 4.14785 11.6353 3.99021 11.4087C3.98036 11.389 3.97051 11.3792 3.95081 11.3496C3.98036 11.3496 4.00007 11.3693 4.00992 11.3792C4.86706 11.8816 5.71435 12.3841 6.5715 12.8866C7.55672 13.4678 8.53209 14.0491 9.51731 14.6304L10.0198 14.926C10.0395 14.9457 10.0395 14.9654 10.0395 14.9851V19.7338C10.0395 19.7831 10.0395 19.8324 10.0296 19.8718Z" fill="#8A92B2"/>
<path d="M3.94092 10.187V10.1772C4.25619 10.0392 4.56161 9.89145 4.87688 9.75352C5.28082 9.56633 5.68476 9.38899 6.0887 9.2018C6.39412 9.06386 6.70939 8.91608 7.01481 8.77815C7.46801 8.57125 7.91136 8.37421 8.36456 8.16731C8.66998 8.02938 8.9754 7.89145 9.29067 7.74367C9.50742 7.64514 9.73402 7.54662 9.95077 7.4481C9.97047 7.43825 10 7.4284 10.0099 7.40869C10.0197 7.40869 10.0197 7.41854 10.0099 7.4284V13.6846C10.0099 13.7141 10 13.7437 10.0197 13.7634C10 13.7929 9.98033 13.7634 9.97047 13.7535C9.8818 13.7043 9.79313 13.655 9.70446 13.5959C7.80299 12.4727 5.89166 11.3397 3.99018 10.2166C3.98033 10.2067 3.96062 10.1969 3.94092 10.187Z" fill="#62688F"/>
<path d="M16.0592 11.3496H16.069C16.069 11.3693 16.0493 11.389 16.0395 11.4087C14.2267 13.9604 12.4139 16.522 10.6011 19.0738C10.4139 19.3398 10.2168 19.6058 10.0296 19.8718C10.0198 19.8619 10.0198 19.8521 10.0198 19.8422V19.7831V15.0048V14.9161C10.4336 14.6698 10.8375 14.4334 11.2513 14.187C12.8474 13.2412 14.4434 12.3053 16.0296 11.3595C16.0395 11.3693 16.0493 11.3595 16.0592 11.3496Z" fill="#62688F"/>
<path d="M10.0197 7.42851V7.4088V7.34969V0.196982C10.0197 .167425 10.0099 .147721 10.0296 .118164C12.0296 3.43836 14.0296 6.74871 16.0197 10.0689C16.0394 10.0985 16.069 10.1379 16.0788 10.1773C15.9409 10.128 15.8128 10.0591 15.6847 9.99994C15.5271 9.93097 15.3596 9.85215 15.202 9.78319C15.1034 9.73393 14.9951 9.69452 14.8966 9.64526C14.7291 9.56644 14.5616 9.49747 14.3941 9.41866C14.2956 9.37925 14.197 9.32999 14.0985 9.28073L13.4483 8.98516C13.3399 8.9359 13.2315 8.88664 13.1133 8.83738L12.6404 8.63048C12.5419 8.59107 12.4434 8.54181 12.3448 8.49255L11.6946 8.19698C11.5862 8.14772 11.4778 8.09846 11.3596 8.0492L10.8867 7.8423C10.7783 7.79304 10.6798 7.74378 10.5714 7.69452C10.3842 7.60585 10.197 7.51718 10 7.43836C10.0296 7.42851 10.0197 7.42851 10.0197 7.42851Z" fill="#62688F"/>
</svg>
