<svg width="1750" height="214" viewBox="0 0 1750 214" fill="none" xmlns="http://www.w3.org/2000/svg">
<g opacity="0.05">
<path d="M226.794 335.609H0L0 281.374L129.835 160.851H3.3434L3.3434 107.543H224.565V158.997L90.8289 281.837H226.794V335.609Z" fill="#4E529A"/>
<path d="M536.306 107.543L426.531 203.498L538.535 335.609H447.706L375.266 248.462L344.618 275.348V335.609H270.506V0L344.618 0V192.373L439.347 107.543H536.306Z" fill="#4E529A"/>
<path d="M858.646 85.2929L789.549 102.908C786.948 91.1645 779.89 80.5029 768.374 70.9229C756.858 61.3429 739.955 56.5529 717.666 56.5529C699.463 56.5529 684.603 60.7248 673.087 69.0687C661.571 77.1035 655.813 86.8381 655.813 98.2722C655.813 118.359 670.115 130.721 698.72 135.356L753.886 144.164C788.806 149.726 815.924 161.315 835.242 178.93C854.559 196.544 864.218 217.25 864.218 241.045C864.218 268.24 851.216 292.035 825.212 312.432C799.579 332.519 765.031 342.562 721.566 342.562C696.677 342.562 674.202 339.472 654.141 333.291C634.081 327.111 617.921 318.921 605.662 308.723C593.403 298.216 583.744 287.245 576.686 275.811C569.999 264.068 565.913 252.016 564.427 239.654L635.753 223.894C637.61 241.509 645.783 256.188 660.271 267.931C675.13 279.674 695.748 285.546 722.124 285.546C742.184 285.546 757.786 281.837 768.931 274.421C780.447 267.004 786.205 257.269 786.205 245.217C786.205 235.637 781.933 227.448 773.389 220.649C765.216 213.541 753.514 208.751 738.283 206.279L683.117 197.008C651.169 191.445 625.908 180.475 607.334 164.096C588.759 147.717 579.472 127.321 579.472 102.908C579.472 73.8587 592.846 49.4452 619.593 29.6671C646.711 9.88904 679.217 0 717.109 0C739.769 0 760.015 2.62678 777.847 7.88033C795.678 13.1339 809.981 20.2416 820.754 29.2036C831.527 37.8565 839.885 46.8184 845.829 56.0893C851.773 65.3603 856.045 75.0948 858.646 85.2929Z" fill="#4E529A"/>
<path d="M989.068 425.537H910.499L975.138 306.869L858.676 107.543H941.704L1014.7 241.045L1082.13 107.543H1161.25L989.068 425.537Z" fill="#4E529A"/>
<path d="M1263.54 204.425V335.609H1189.43V107.543H1261.32V135.82C1269.12 124.694 1280.26 116.196 1294.75 110.324C1309.24 104.453 1324.47 101.517 1340.44 101.517C1372.76 101.517 1397.28 110.015 1414 127.012C1431.09 143.7 1439.63 165.332 1439.63 191.909V335.609H1365.52V202.571C1365.52 188.973 1361.25 178.003 1352.7 169.659C1344.53 161.315 1331.9 157.143 1314.81 157.143C1299.21 157.143 1286.76 161.624 1277.48 170.586C1268.19 179.548 1263.54 190.827 1263.54 204.425Z" fill="#4E529A"/>
<path d="M1621.28 157.606C1601.59 157.606 1585.06 163.324 1571.69 174.758C1558.31 186.192 1551.63 201.798 1551.63 221.576C1551.63 241.354 1558.31 257.115 1571.69 268.858C1585.43 280.292 1602.15 286.009 1621.84 286.009C1639.3 286.009 1653.23 282.301 1663.63 274.884C1674.03 267.158 1681.09 258.042 1684.8 247.535L1750 265.613C1743.31 286.627 1728.83 304.706 1706.54 319.848C1684.25 334.991 1656.01 342.562 1621.84 342.562C1580.97 342.562 1546.61 331.128 1518.75 308.26C1491.26 285.082 1477.51 256.188 1477.51 221.576C1477.51 186.655 1491.07 157.761 1518.19 134.893C1545.68 112.024 1579.49 100.59 1619.61 100.59C1654.53 100.59 1683.13 108.161 1705.42 123.304C1727.71 138.137 1742.01 156.216 1748.33 177.539L1682.02 196.081C1673.1 170.431 1652.86 157.606 1621.28 157.606Z" fill="#4E529A"/>
</g>
</svg>
