<svg width="111" height="109" viewBox="0 0 111 109" fill="none" xmlns="http://www.w3.org/2000/svg">
<path d="M105.307 58.1332L99.7157 54.5059L105.311 50.8741C108.872 48.5646 111 44.647 111 40.3988C111 36.1506 108.872 32.2374 105.311 29.9234L62.2799 2.00852C58.1616 -0.67174 52.8384 -0.667272 48.7156 2.00852L5.69345 29.9234C2.13281 32.2329 0.00446184 36.1506 0.00446184 40.3988C0.00446184 44.2271 1.73124 47.7739 4.67613 50.1326L11.3111 54.4835L5.68899 58.1287C2.12835 60.4382 0 64.3558 0 68.604C0 72.4323 1.72678 75.9792 4.67166 78.3378L21.2791 89.2242L21.2969 89.2108L48.7067 106.999C50.7681 108.334 53.1285 109 55.4888 109C57.8492 109 60.2096 108.33 62.271 106.999L81.9527 94.2273L82.1356 94.1112L89.6808 89.2152L105.298 79.0838C108.858 76.7744 110.987 72.8567 110.987 68.6085C110.987 64.3603 108.858 60.4471 105.298 58.1332H105.307ZM10.7221 43.1103C9.39241 42.2481 9.24963 40.9259 9.24963 40.3988C9.24963 39.8716 9.39241 38.5449 10.7221 37.6872L53.7487 9.76787C54.8196 9.07547 56.1938 9.07547 57.2602 9.76787L100.282 37.6872C101.612 38.5494 101.755 39.8716 101.755 40.3988C101.755 40.9259 101.612 42.2481 100.282 43.1103L91.2202 48.9935L62.2844 30.2182C58.166 27.538 52.8429 27.5425 48.7201 30.2182L19.7843 48.9935L10.7265 43.1148L10.7221 43.1103ZM82.7291 54.5014L57.2558 71.0297C56.1894 71.7265 54.8106 71.7221 53.7442 71.0297L28.2754 54.5014L53.7487 37.9687C54.8196 37.2763 56.1938 37.2763 57.2602 37.9687L82.7291 54.4969V54.5014ZM100.282 71.3156L57.2602 99.2394C56.1938 99.9363 54.8151 99.9318 53.7487 99.2394L10.7265 71.32C9.39687 70.4579 9.25409 69.1356 9.25409 68.6085C9.25409 68.0814 9.39687 66.7546 10.7265 65.897L19.7709 60.0272L21.288 61.0234L21.3058 61.01L48.7156 78.7979C50.777 80.1336 53.1374 80.7992 55.4978 80.7992C57.8581 80.7992 60.2185 80.1291 62.2799 78.7979L81.9616 66.0265L82.1446 65.9104L89.6897 61.0144L91.2202 60.0227L100.282 65.9014C101.612 66.7636 101.755 68.0858 101.755 68.613C101.755 69.1401 101.612 70.4623 100.282 71.3245V71.3156Z" fill="black"/>
</svg>
