<svg width="124" height="24" viewBox="0 0 124 24" fill="none" xmlns="http://www.w3.org/2000/svg">
<path fill-rule="evenodd" clip-rule="evenodd" d="M28.4373 0L40.4585 12L28.4373 24V17.5541H16.6028L28.4373 8.84609V0ZM29.1279 1.6651V9.19532L18.7065 16.8636H29.1279V22.3349L39.4811 12L29.1279 1.6651Z" fill="#4E5299"/>
<path fill-rule="evenodd" clip-rule="evenodd" d="M12.0414 0.000976562V6.44581H23.8466L12.0414 15.2316V23.9989L0 11.9999L12.0414 0.000976562ZM0.978336 11.9999L11.3508 22.3359V14.8847L21.7621 7.13638H11.3508V1.664L0.978336 11.9999Z" fill="#8B8CFB"/>
<path d="M56.583 9.55329V7.2251H48.2173V9.65194H53.0118L48.0989 15.1173V17.5836H56.6619V15.137H51.532L56.583 9.55329Z" fill="#243955"/>
<path d="M68.362 7.22519H64.7119L61.1209 11.0726V2.33203H58.3192V17.5837H61.1209V14.8412L62.285 13.6179L65.0276 17.5837H68.4607L64.2186 11.5856L68.362 7.22519Z" fill="#243955"/>
<path d="M76.5897 8.8826L74.4982 8.48799C73.4131 8.27095 72.8804 7.7185 72.8804 6.8109C72.8804 6.2979 73.0974 5.8441 73.5315 5.48895C73.9655 5.11407 74.5377 4.91677 75.2085 4.91677C76.057 4.91677 76.6883 5.1338 77.1224 5.56787C77.5565 6.00194 77.8327 6.4952 77.9314 7.02793L80.5358 6.21898C80.4371 5.76518 80.2793 5.31138 80.0425 4.89704C79.8255 4.4827 79.5098 4.06835 79.0955 3.67375C78.6811 3.25941 78.1484 2.94372 77.4775 2.70695C76.8067 2.47019 76.0372 2.35181 75.1888 2.35181C73.7485 2.35181 72.5252 2.80561 71.4992 3.69348C70.493 4.60108 69.98 5.70598 69.98 7.02793C69.98 8.13283 70.3351 9.06017 71.0257 9.80993C71.736 10.5597 72.683 11.0529 73.8866 11.3094L75.978 11.7238C76.5502 11.8422 77.004 12.0592 77.3 12.3749C77.6157 12.6906 77.7933 13.0457 77.7933 13.4995C77.7933 14.052 77.5762 14.486 77.1421 14.8215C76.7278 15.1569 76.1359 15.3345 75.3664 15.3345C74.3601 15.3345 73.5906 15.0582 73.0185 14.5255C72.466 13.9928 72.1701 13.322 72.0911 12.5327L69.3881 13.243C69.4473 13.7955 69.6051 14.3479 69.8419 14.8807C70.1181 15.3936 70.4732 15.9066 70.9468 16.3802C71.4006 16.834 72.0122 17.2089 72.7817 17.5048C73.5315 17.781 74.3996 17.9192 75.3269 17.9192C76.9646 17.9192 78.2668 17.4653 79.2533 16.5577C80.2398 15.6304 80.7331 14.5452 80.7331 13.322C80.7331 12.2368 80.3582 11.3094 79.6282 10.5005C78.9376 9.67182 77.9116 9.13909 76.5897 8.8826Z" fill="#243955"/>
<path d="M86.4548 13.2824L83.6925 7.2251H80.5554L84.9553 16.2814L82.5087 21.6678H85.488L91.9991 7.2251H89.0001L86.4548 13.2824Z" fill="#243955"/>
<path d="M98.7666 6.94897C98.155 6.94897 97.5828 7.08709 97.0304 7.34358C96.4779 7.61981 96.0636 7.99468 95.7676 8.50768V7.22519H93.0448V17.5837H95.8465V11.6251C95.8465 11.0134 96.0241 10.5005 96.3793 10.0861C96.7344 9.67177 97.2079 9.47447 97.7998 9.47447C98.4509 9.47447 98.9245 9.67177 99.2402 10.0467C99.5559 10.4215 99.7334 10.9148 99.7334 11.5462V17.5837H102.535V11.0529C102.535 9.84935 102.219 8.86282 101.568 8.11307C100.917 7.34358 99.9899 6.94897 98.7666 6.94897Z" fill="#243955"/>
<path d="M111.833 13.6492C111.695 14.1227 111.419 14.537 111.024 14.8922C110.629 15.2276 110.097 15.4052 109.446 15.4052C108.696 15.4052 108.064 15.1487 107.551 14.6357C107.038 14.103 106.802 13.3927 106.802 12.4851C106.802 11.5775 107.058 10.8869 107.551 10.3542C108.064 9.84119 108.676 9.5847 109.426 9.5847C110.61 9.5847 111.379 10.1766 111.715 11.3407L114.22 10.4923C113.984 9.5255 113.451 8.69682 112.602 8.02599C111.754 7.33542 110.689 7 109.367 7C107.847 7 106.565 7.513 105.539 8.55871C104.513 9.60443 104 10.9066 104 12.4851C104 14.0635 104.513 15.3657 105.559 16.4114C106.604 17.4572 107.907 17.9702 109.465 17.9702C110.748 17.9702 111.833 17.6347 112.662 16.9442C113.51 16.2536 114.043 15.4447 114.299 14.4779L111.833 13.6492Z" fill="#243955"/>
<path d="M113.801 5.92277V0.950684H114.788V5.92277H113.801Z" fill="#8B8CFB"/>
<path d="M115.814 1.89774V0.950684H116.84V1.89774H115.814ZM115.834 5.92277V2.41074H116.82V5.92277H115.834Z" fill="#8B8CFB"/>
<path d="M117.294 3.16085V2.39135H119.642V3.16085H117.294ZM117.905 5.92311V1.42456H118.892V5.92311H117.905Z" fill="#8B8CFB"/>
<path d="M121.832 6.0019C121.516 6.0019 121.24 5.94271 121.023 5.84405C120.806 5.7454 120.608 5.60729 120.47 5.42972C120.332 5.25214 120.233 5.07457 120.155 4.85753C120.095 4.6405 120.056 4.42346 120.056 4.1867C120.056 3.96966 120.095 3.7329 120.155 3.51586C120.214 3.29882 120.312 3.10152 120.451 2.92395C120.589 2.74637 120.766 2.60826 120.983 2.48987C121.2 2.39122 121.457 2.33203 121.772 2.33203C122.049 2.33203 122.285 2.37149 122.483 2.47015C122.68 2.5688 122.858 2.68718 122.996 2.86476C123.134 3.0226 123.233 3.2199 123.311 3.43694C123.371 3.65397 123.41 3.89074 123.41 4.16696C123.41 4.20642 123.41 4.26562 123.41 4.32481C123.41 4.384 123.41 4.44319 123.39 4.52212H121.042C121.062 4.73915 121.161 4.897 121.319 5.01538C121.477 5.11403 121.654 5.17322 121.891 5.17322C122.068 5.17322 122.246 5.13376 122.424 5.07457C122.601 5.01538 122.759 4.91673 122.877 4.81807L123.331 5.50864C123.154 5.62702 122.996 5.72568 122.838 5.8046C122.68 5.88352 122.542 5.94271 122.384 5.96244C122.207 5.98217 122.029 6.0019 121.832 6.0019ZM122.443 4.00912C122.443 3.96966 122.463 3.9302 122.463 3.89074C122.463 3.85128 122.483 3.81182 122.483 3.79209C122.483 3.69343 122.463 3.61451 122.424 3.53559C122.384 3.45667 122.345 3.39748 122.285 3.33829C122.226 3.2791 122.147 3.23963 122.068 3.20017C121.989 3.16071 121.891 3.16071 121.792 3.16071C121.634 3.16071 121.496 3.20017 121.378 3.25937C121.279 3.31856 121.181 3.39748 121.141 3.49613C121.082 3.59478 121.042 3.69343 121.042 3.79209H122.798L122.443 4.00912Z" fill="#8B8CFB"/>
</svg>
