<svg width="296" height="109" viewBox="0 0 296 109" fill="none" xmlns="http://www.w3.org/2000/svg">
<path d="M144.088 71V35.768H148.792V71H144.088ZM165.736 71L154.12 55.4H159.64L171.448 71H165.736ZM147.016 58.328V54.152H156.424C157.896 54.152 159.16 53.848 160.216 53.24C161.272 52.632 162.088 51.8 162.664 50.744C163.24 49.656 163.528 48.424 163.528 47.048C163.528 45.672 163.24 44.456 162.664 43.4C162.088 42.312 161.272 41.464 160.216 40.856C159.16 40.216 157.896 39.896 156.424 39.896H147.016V35.768H155.56C158.12 35.768 160.36 36.152 162.28 36.92C164.2 37.688 165.688 38.872 166.744 40.472C167.8 42.072 168.328 44.136 168.328 46.664V47.432C168.328 49.96 167.784 52.024 166.696 53.624C165.64 55.224 164.152 56.408 162.232 57.176C160.344 57.944 158.12 58.328 155.56 58.328H147.016ZM188.365 71.864C186.125 71.864 184.157 71.48 182.461 70.712C180.765 69.944 179.325 68.936 178.141 67.688C176.989 66.408 176.109 64.984 175.501 63.416C174.925 61.848 174.637 60.248 174.637 58.616V57.752C174.637 56.12 174.941 54.52 175.549 52.952C176.157 51.352 177.053 49.928 178.237 48.68C179.421 47.4 180.861 46.392 182.557 45.656C184.253 44.888 186.189 44.504 188.365 44.504C190.541 44.504 192.477 44.888 194.173 45.656C195.869 46.392 197.309 47.4 198.493 48.68C199.677 49.928 200.573 51.352 201.181 52.952C201.789 54.52 202.093 56.12 202.093 57.752V58.616C202.093 60.248 201.789 61.848 201.181 63.416C200.605 64.984 199.725 66.408 198.541 67.688C197.389 68.936 195.965 69.944 194.269 70.712C192.573 71.48 190.605 71.864 188.365 71.864ZM188.365 67.736C190.285 67.736 191.917 67.32 193.261 66.488C194.637 65.624 195.677 64.472 196.381 63.032C197.117 61.592 197.485 59.976 197.485 58.184C197.485 56.36 197.117 54.728 196.381 53.288C195.645 51.848 194.589 50.712 193.213 49.88C191.869 49.048 190.253 48.632 188.365 48.632C186.509 48.632 184.893 49.048 183.517 49.88C182.141 50.712 181.085 51.848 180.349 53.288C179.613 54.728 179.245 56.36 179.245 58.184C179.245 59.976 179.597 61.592 180.301 63.032C181.037 64.472 182.077 65.624 183.421 66.488C184.797 67.32 186.445 67.736 188.365 67.736ZM209.282 71V35.96H213.89V71H209.282ZM205.73 39.608V35.96H213.89V39.608H205.73ZM223.017 71V35.96H227.625V71H223.017ZM219.465 39.608V35.96H227.625V39.608H219.465ZM245.343 71.768C242.303 71.768 239.967 70.776 238.335 68.792C236.703 66.808 235.887 63.944 235.887 60.2V45.32H240.495V61.112C240.495 63.128 241.039 64.712 242.127 65.864C243.215 66.984 244.687 67.544 246.543 67.544C248.463 67.544 250.031 66.936 251.247 65.72C252.463 64.472 253.071 62.776 253.071 60.632V45.32H257.679V71H254.031V60.008H254.607C254.607 62.536 254.271 64.68 253.599 66.44C252.927 68.168 251.919 69.496 250.575 70.424C249.263 71.32 247.583 71.768 245.535 71.768H245.343ZM266.604 80.6V45.368H270.252V56.456L269.388 56.36C269.548 53.608 270.124 51.368 271.116 49.64C272.14 47.88 273.468 46.584 275.1 45.752C276.732 44.92 278.508 44.504 280.428 44.504C282.284 44.504 283.964 44.856 285.468 45.56C287.004 46.264 288.316 47.224 289.404 48.44C290.492 49.656 291.324 51.064 291.9 52.664C292.476 54.264 292.764 55.96 292.764 57.752V58.616C292.764 60.408 292.46 62.104 291.852 63.704C291.244 65.304 290.38 66.712 289.26 67.928C288.172 69.144 286.86 70.104 285.324 70.808C283.82 71.512 282.156 71.864 280.332 71.864C278.508 71.864 276.764 71.464 275.1 70.664C273.436 69.864 272.06 68.568 270.972 66.776C269.884 64.984 269.26 62.632 269.1 59.72L271.212 63.56V80.6H266.604ZM279.612 67.832C281.34 67.832 282.844 67.432 284.124 66.632C285.404 65.8 286.396 64.664 287.1 63.224C287.804 61.752 288.156 60.072 288.156 58.184C288.156 56.264 287.804 54.584 287.1 53.144C286.396 51.704 285.404 50.584 284.124 49.784C282.844 48.952 281.34 48.536 279.612 48.536C278.076 48.536 276.652 48.888 275.34 49.592C274.028 50.264 272.972 51.256 272.172 52.568C271.404 53.848 271.02 55.4 271.02 57.224V59.432C271.02 61.192 271.42 62.696 272.22 63.944C273.02 65.192 274.076 66.152 275.388 66.824C276.7 67.496 278.108 67.832 279.612 67.832Z" fill="black"/>
<path d="M105.307 58.1332L99.7157 54.5059L105.311 50.8741C108.872 48.5646 111 44.647 111 40.3988C111 36.1506 108.872 32.2374 105.311 29.9234L62.2799 2.00852C58.1616 -0.67174 52.8384 -0.667272 48.7156 2.00852L5.69345 29.9234C2.13281 32.2329 0.00446184 36.1506 0.00446184 40.3988C0.00446184 44.2271 1.73124 47.7739 4.67613 50.1326L11.3111 54.4835L5.68899 58.1287C2.12835 60.4382 0 64.3558 0 68.604C0 72.4323 1.72678 75.9792 4.67166 78.3378L21.2791 89.2242L21.2969 89.2108L48.7067 106.999C50.7681 108.334 53.1285 109 55.4888 109C57.8492 109 60.2096 108.33 62.271 106.999L81.9527 94.2273L82.1356 94.1112L89.6808 89.2152L105.298 79.0838C108.858 76.7744 110.987 72.8567 110.987 68.6085C110.987 64.3603 108.858 60.4471 105.298 58.1332H105.307ZM10.7221 43.1103C9.39241 42.2481 9.24963 40.9259 9.24963 40.3988C9.24963 39.8716 9.39241 38.5449 10.7221 37.6872L53.7487 9.76787C54.8196 9.07547 56.1938 9.07547 57.2602 9.76787L100.282 37.6872C101.612 38.5494 101.755 39.8716 101.755 40.3988C101.755 40.9259 101.612 42.2481 100.282 43.1103L91.2202 48.9935L62.2844 30.2182C58.166 27.538 52.8429 27.5425 48.7201 30.2182L19.7843 48.9935L10.7265 43.1148L10.7221 43.1103ZM82.7291 54.5014L57.2558 71.0297C56.1894 71.7265 54.8106 71.7221 53.7442 71.0297L28.2754 54.5014L53.7487 37.9687C54.8196 37.2763 56.1938 37.2763 57.2602 37.9687L82.7291 54.4969V54.5014ZM100.282 71.3156L57.2602 99.2394C56.1938 99.9363 54.8151 99.9318 53.7487 99.2394L10.7265 71.32C9.39687 70.4579 9.25409 69.1356 9.25409 68.6085C9.25409 68.0814 9.39687 66.7546 10.7265 65.897L19.7709 60.0272L21.288 61.0234L21.3058 61.01L48.7156 78.7979C50.777 80.1336 53.1374 80.7992 55.4978 80.7992C57.8581 80.7992 60.2185 80.1291 62.2799 78.7979L81.9616 66.0265L82.1446 65.9104L89.6897 61.0144L91.2202 60.0227L100.282 65.9014C101.612 66.7636 101.755 68.0858 101.755 68.613C101.755 69.1401 101.612 70.4623 100.282 71.3245V71.3156Z" fill="black"/>
</svg>
