<svg width="300" height="146" viewBox="0 0 300 146" fill="none" xmlns="http://www.w3.org/2000/svg">
<path d="M148.088 89V53.768H152.792V89H148.088ZM169.736 89L158.12 73.4H163.64L175.448 89H169.736ZM151.016 76.328V72.152H160.424C161.896 72.152 163.16 71.848 164.216 71.24C165.272 70.632 166.088 69.8 166.664 68.744C167.24 67.656 167.528 66.424 167.528 65.048C167.528 63.672 167.24 62.456 166.664 61.4C166.088 60.312 165.272 59.464 164.216 58.856C163.16 58.216 161.896 57.896 160.424 57.896H151.016V53.768H159.56C162.12 53.768 164.36 54.152 166.28 54.92C168.2 55.688 169.688 56.872 170.744 58.472C171.8 60.072 172.328 62.136 172.328 64.664V65.432C172.328 67.96 171.784 70.024 170.696 71.624C169.64 73.224 168.152 74.408 166.232 75.176C164.344 75.944 162.12 76.328 159.56 76.328H151.016ZM192.365 89.864C190.125 89.864 188.157 89.48 186.461 88.712C184.765 87.944 183.325 86.936 182.141 85.688C180.989 84.408 180.109 82.984 179.501 81.416C178.925 79.848 178.637 78.248 178.637 76.616V75.752C178.637 74.12 178.941 72.52 179.549 70.952C180.157 69.352 181.053 67.928 182.237 66.68C183.421 65.4 184.861 64.392 186.557 63.656C188.253 62.888 190.189 62.504 192.365 62.504C194.541 62.504 196.477 62.888 198.173 63.656C199.869 64.392 201.309 65.4 202.493 66.68C203.677 67.928 204.573 69.352 205.181 70.952C205.789 72.52 206.093 74.12 206.093 75.752V76.616C206.093 78.248 205.789 79.848 205.181 81.416C204.605 82.984 203.725 84.408 202.541 85.688C201.389 86.936 199.965 87.944 198.269 88.712C196.573 89.48 194.605 89.864 192.365 89.864ZM192.365 85.736C194.285 85.736 195.917 85.32 197.261 84.488C198.637 83.624 199.677 82.472 200.381 81.032C201.117 79.592 201.485 77.976 201.485 76.184C201.485 74.36 201.117 72.728 200.381 71.288C199.645 69.848 198.589 68.712 197.213 67.88C195.869 67.048 194.253 66.632 192.365 66.632C190.509 66.632 188.893 67.048 187.517 67.88C186.141 68.712 185.085 69.848 184.349 71.288C183.613 72.728 183.245 74.36 183.245 76.184C183.245 77.976 183.597 79.592 184.301 81.032C185.037 82.472 186.077 83.624 187.421 84.488C188.797 85.32 190.445 85.736 192.365 85.736ZM213.282 89V53.96H217.89V89H213.282ZM209.73 57.608V53.96H217.89V57.608H209.73ZM227.017 89V53.96H231.625V89H227.017ZM223.465 57.608V53.96H231.625V57.608H223.465ZM249.343 89.768C246.303 89.768 243.967 88.776 242.335 86.792C240.703 84.808 239.887 81.944 239.887 78.2V63.32H244.495V79.112C244.495 81.128 245.039 82.712 246.127 83.864C247.215 84.984 248.687 85.544 250.543 85.544C252.463 85.544 254.031 84.936 255.247 83.72C256.463 82.472 257.071 80.776 257.071 78.632V63.32H261.679V89H258.031V78.008H258.607C258.607 80.536 258.271 82.68 257.599 84.44C256.927 86.168 255.919 87.496 254.575 88.424C253.263 89.32 251.583 89.768 249.535 89.768H249.343ZM270.604 98.6V63.368H274.252V74.456L273.388 74.36C273.548 71.608 274.124 69.368 275.116 67.64C276.14 65.88 277.468 64.584 279.1 63.752C280.732 62.92 282.508 62.504 284.428 62.504C286.284 62.504 287.964 62.856 289.468 63.56C291.004 64.264 292.316 65.224 293.404 66.44C294.492 67.656 295.324 69.064 295.9 70.664C296.476 72.264 296.764 73.96 296.764 75.752V76.616C296.764 78.408 296.46 80.104 295.852 81.704C295.244 83.304 294.38 84.712 293.26 85.928C292.172 87.144 290.86 88.104 289.324 88.808C287.82 89.512 286.156 89.864 284.332 89.864C282.508 89.864 280.764 89.464 279.1 88.664C277.436 87.864 276.06 86.568 274.972 84.776C273.884 82.984 273.26 80.632 273.1 77.72L275.212 81.56V98.6H270.604ZM283.612 85.832C285.34 85.832 286.844 85.432 288.124 84.632C289.404 83.8 290.396 82.664 291.1 81.224C291.804 79.752 292.156 78.072 292.156 76.184C292.156 74.264 291.804 72.584 291.1 71.144C290.396 69.704 289.404 68.584 288.124 67.784C286.844 66.952 285.34 66.536 283.612 66.536C282.076 66.536 280.652 66.888 279.34 67.592C278.028 68.264 276.972 69.256 276.172 70.568C275.404 71.848 275.02 73.4 275.02 75.224V77.432C275.02 79.192 275.42 80.696 276.22 81.944C277.02 83.192 278.076 84.152 279.388 84.824C280.7 85.496 282.108 85.832 283.612 85.832Z" fill="black"/>
<path d="M66.1125 30.6659L96.3833 49.3841C101.18 52.3501 104.336 54.3156 106.371 56.0325C108.341 57.6945 108.376 58.4001 108.383 58.6576C108.39 58.9151 108.395 59.6215 106.522 61.3916C104.586 63.2202 101.546 65.3599 96.9235 68.5908L66.8462 89.6142C64.6497 91.1495 63.2925 92.0907 62.1955 92.6926C61.1949 93.2416 60.784 93.2911 60.5544 93.2963C60.3248 93.3015 59.912 93.2706 58.8876 92.7674C57.7645 92.2157 56.3661 91.3369 54.1025 89.9025L23.2966 70.3819C18.4637 67.3194 15.2786 65.287 13.2325 63.5214C11.2475 61.8084 11.2286 61.0949 11.2262 60.8406C11.2238 60.5863 11.2291 59.8726 13.1813 58.1223C15.1936 56.3182 18.3396 54.2258 23.1137 51.0723L53.7259 30.8513C55.8778 29.4299 57.2043 28.5606 58.2732 28.0064C59.2473 27.5013 59.6461 27.4568 59.8697 27.4535C60.0933 27.4501 60.4933 27.4826 61.482 27.9583C62.567 28.4803 63.919 29.3095 66.1125 30.6659Z" stroke="black" stroke-width="9"/>
<path d="M96.7488 96.1842L96.7487 96.1843L66.7939 115.898C64.5973 117.344 63.2417 118.229 62.15 118.79C61.1547 119.302 60.7491 119.343 60.5224 119.344C60.2957 119.345 59.8898 119.307 58.8906 118.803C57.7946 118.25 56.4322 117.375 54.2244 115.947L23.7555 96.2313C19.0514 93.1874 15.9589 91.1723 13.9727 89.4259C12.052 87.7371 12.0277 87.0343 12.0249 86.7753C12.022 86.5163 12.0307 85.8132 13.9135 84.0823C15.8606 82.2923 18.9077 80.2092 23.5433 77.0619L54.0096 56.3769C56.2859 54.8315 57.6944 53.8829 58.8302 53.2825C59.8669 52.7344 60.2876 52.6947 60.5214 52.6957C60.7552 52.6966 61.1756 52.7396 62.208 53.2958C63.339 53.9051 64.74 54.8649 67.0039 56.4282L96.9612 77.1149C101.505 80.2524 104.486 82.3254 106.39 84.1032C108.228 85.8185 108.239 86.5144 108.236 86.7764C108.233 87.0384 108.206 87.7339 106.331 89.4078C104.398 91.134 101.391 93.1287 96.8179 96.1387C96.7949 96.1539 96.7718 96.169 96.7488 96.1842Z" stroke="black" stroke-width="9"/>
</svg>
