<svg width="120" height="146" viewBox="0 0 120 146" fill="none" xmlns="http://www.w3.org/2000/svg">
<path d="M66.1125 30.6659L96.3833 49.3841C101.18 52.3501 104.336 54.3156 106.371 56.0325C108.341 57.6945 108.376 58.4001 108.383 58.6576C108.39 58.9151 108.395 59.6215 106.522 61.3916C104.586 63.2202 101.546 65.3599 96.9235 68.5908L66.8462 89.6142C64.6497 91.1495 63.2925 92.0907 62.1955 92.6926C61.1949 93.2416 60.784 93.2911 60.5544 93.2963C60.3248 93.3015 59.912 93.2706 58.8876 92.7674C57.7645 92.2157 56.3661 91.3369 54.1025 89.9025L23.2966 70.3819C18.4637 67.3194 15.2786 65.287 13.2325 63.5214C11.2475 61.8084 11.2286 61.0949 11.2262 60.8406C11.2238 60.5863 11.2291 59.8726 13.1813 58.1223C15.1936 56.3182 18.3396 54.2258 23.1137 51.0723L53.7259 30.8513C55.8778 29.4299 57.2043 28.5606 58.2732 28.0064C59.2473 27.5013 59.6461 27.4568 59.8697 27.4535C60.0933 27.4501 60.4933 27.4826 61.482 27.9583C62.567 28.4803 63.919 29.3095 66.1125 30.6659Z" stroke="black" stroke-width="9"/>
<path d="M96.7488 96.1842L96.7487 96.1843L66.7939 115.898C64.5973 117.344 63.2417 118.229 62.15 118.79C61.1547 119.302 60.7491 119.343 60.5224 119.344C60.2957 119.345 59.8898 119.307 58.8906 118.803C57.7946 118.25 56.4322 117.375 54.2244 115.947L23.7555 96.2313C19.0514 93.1874 15.9589 91.1723 13.9727 89.4259C12.052 87.7371 12.0277 87.0343 12.0249 86.7753C12.022 86.5163 12.0307 85.8132 13.9135 84.0823C15.8606 82.2923 18.9077 80.2092 23.5433 77.0619L54.0096 56.3769C56.2859 54.8315 57.6944 53.8829 58.8302 53.2825C59.8669 52.7344 60.2876 52.6947 60.5214 52.6957C60.7552 52.6966 61.1756 52.7396 62.208 53.2958C63.339 53.9051 64.74 54.8649 67.0039 56.4282L96.9612 77.1149C101.505 80.2524 104.486 82.3254 106.39 84.1032C108.228 85.8185 108.239 86.5144 108.236 86.7764C108.233 87.0384 108.206 87.7339 106.331 89.4078C104.398 91.134 101.391 93.1287 96.8179 96.1387C96.7949 96.1539 96.7718 96.169 96.7488 96.1842Z" stroke="black" stroke-width="9"/>
</svg>
