<svg width="28" height="16" viewBox="0 0 28 16" fill="none" xmlns="http://www.w3.org/2000/svg">
<g clip-path="url(#clip0_2468:23491)">
<g clip-path="url(#clip1_2468:23491)">
<path d="M19.1694 9.41545L15.9381 12.456C15.6643 12.7136 15.6646 13.1324 15.9386 13.3896L18.4079 15.7079C18.8288 16.0974 19.5168 16.0974 19.9376 15.7079L27.5062 8.70465C27.927 8.31525 27.927 7.67855 27.5062 7.28915L19.9376 0.292061C19.5168 -0.0973537 18.8288 -0.0973537 18.4079 0.292061L15.9386 2.61039C15.6646 2.86768 15.6643 3.28641 15.9381 3.54398L19.1694 6.58455C20.0111 7.36335 20.0111 8.63665 19.1694 9.41545Z" fill="#057A55"/>
<path d="M9.45218 9.41545L12.6835 12.456C12.9573 12.7136 12.957 13.1324 12.683 13.3896L10.2137 15.7079C9.79282 16.0974 9.10482 16.0974 8.68397 15.7079L1.11544 8.70465C0.694594 8.31525 0.694594 7.67855 1.11544 7.28915L8.68397 0.292061C9.10482 -0.0973537 9.79282 -0.0973537 10.2137 0.292061L12.683 2.61039C12.957 2.86768 12.9573 3.28641 12.6835 3.54398L9.45218 6.58455C8.61047 7.36335 8.61047 8.63665 9.45218 9.41545Z" fill="#21BF73"/>
<path d="M10.3001 8.5785C9.95922 8.259 9.95922 7.741 10.3001 7.4215L13.694 4.23963C14.0348 3.92012 14.5874 3.92012 14.9282 4.23963L18.3222 7.4215C18.663 7.741 18.663 8.259 18.3222 8.5785L14.9282 11.7603C14.5874 12.0799 14.0348 12.0799 13.694 11.7603L10.3001 8.5785Z" fill="#21BF73"/>
</g>
</g>
<defs>
<clipPath id="clip0_2468:23491">
<rect width="27.2" height="16" fill="white" transform="translate(0.799805)"/>
</clipPath>
<clipPath id="clip1_2468:23491">
<rect width="27.2" height="16" fill="white" transform="translate(0.799805)"/>
</clipPath>
</defs>
</svg>
