<svg width="117" height="23" viewBox="0 0 117 23" fill="none" xmlns="http://www.w3.org/2000/svg">
<path d="M28.9141 0.00390625L40.3647 11.4392L28.9141 22.8745V0.00390625Z" fill="#4E529A"/>
<path d="M28.9149 16.7715L17.462 16.7636L28.9149 8.31696L28.9149 16.7715Z" fill="#4E529A"/>
<path d="M11.4512 22.8711L0.00052743 11.4358L11.4512 0.00048786L11.4512 22.8711Z" fill="#8C8DFC"/>
<path d="M11.4503 6.10353L22.9033 6.11142L11.4526 14.6242L11.4503 6.10353Z" fill="#8C8DFC"/>
<path d="M57.9926 18.1738H49.207V15.6517L54.2366 10.0468H49.3365V7.56769H57.9063V9.96054L52.7256 15.6732H57.9926V18.1738Z" fill="black" fill-opacity="0.9"/>
<path d="M69.9825 7.56769L65.7301 12.03L70.0689 18.1738H66.5503L63.7441 14.1211L62.5569 15.3714V18.1738H59.6859V2.56641H62.5569V11.5127L66.2265 7.56769H69.9825Z" fill="black" fill-opacity="0.9"/>
<path d="M82.4694 6.53294L79.7927 7.35211C79.692 6.806 79.4185 6.31018 78.9724 5.86466C78.5263 5.41915 77.8715 5.19639 77.0081 5.19639C76.3029 5.19639 75.7273 5.3904 75.2812 5.77843C74.8351 6.15209 74.612 6.6048 74.612 7.13654C74.612 8.07069 75.1661 8.64555 76.2742 8.86112L78.4112 9.27071C79.7639 9.52939 80.8144 10.0683 81.5628 10.8875C82.3111 11.7067 82.6852 12.6696 82.6852 13.7762C82.6852 15.0409 82.1816 16.1475 81.1742 17.096C80.1812 18.0301 78.8429 18.4972 77.1592 18.4972C76.195 18.4972 75.3244 18.3535 74.5473 18.0661C73.7702 17.7786 73.1442 17.3978 72.6693 16.9235C72.1944 16.4349 71.8202 15.9247 71.5468 15.393C71.2877 14.8468 71.1294 14.2864 71.0719 13.7115L73.8349 12.9786C73.9069 13.7977 74.2235 14.4804 74.7847 15.0265C75.3603 15.5726 76.159 15.8457 77.1808 15.8457C77.9579 15.8457 78.5623 15.6732 78.994 15.3283C79.4401 14.9834 79.6632 14.5307 79.6632 13.9702C79.6632 13.5247 79.4977 13.1438 79.1667 12.8277C78.8501 12.4971 78.3968 12.2744 77.8068 12.1594L75.6697 11.7282C74.4321 11.4695 73.4536 10.9594 72.734 10.1977C72.0145 9.43598 71.6547 8.48746 71.6547 7.35211C71.6547 6.00119 72.1728 4.86585 73.2089 3.94607C74.2594 3.02629 75.5186 2.56641 76.9865 2.56641C77.8643 2.56641 78.6486 2.68856 79.3394 2.93288C80.0301 3.17719 80.5842 3.50774 81.0015 3.92451C81.4189 4.32691 81.7426 4.74369 81.9729 5.17483C82.2032 5.60598 82.3686 6.05868 82.4694 6.53294Z" fill="black" fill-opacity="0.9"/>
<path d="M87.5217 22.356H84.4781L86.9821 16.8373L82.4706 7.56769H85.6869L88.5147 13.7762L91.1266 7.56769H94.1918L87.5217 22.356Z" fill="black" fill-opacity="0.9"/>
<path d="M98.1544 12.0731V18.1738H95.2835V7.56769H98.0681V8.88268C98.3703 8.3653 98.802 7.97009 99.3633 7.69703C99.9245 7.42397 100.515 7.28744 101.133 7.28744C102.385 7.28744 103.335 7.68266 103.983 8.47309C104.645 9.24915 104.976 10.2552 104.976 11.4911V18.1738H102.105V11.9869C102.105 11.3546 101.939 10.8444 101.608 10.4564C101.292 10.0683 100.802 9.87431 100.14 9.87431C99.5359 9.87431 99.0539 10.0827 98.6941 10.4995C98.3343 10.9162 98.1544 11.4408 98.1544 12.0731Z" fill="black" fill-opacity="0.9"/>
<path d="M112.012 9.89587C111.25 9.89587 110.609 10.1617 110.091 10.6935C109.573 11.2252 109.314 11.951 109.314 12.8708C109.314 13.7905 109.573 14.5235 110.091 15.0696C110.624 15.6014 111.271 15.8672 112.034 15.8672C112.71 15.8672 113.25 15.6948 113.653 15.3498C114.056 14.9906 114.329 14.5666 114.473 14.078L116.999 14.9187C116.74 15.896 116.179 16.7367 115.315 17.4409C114.452 18.1451 113.358 18.4972 112.034 18.4972C110.451 18.4972 109.12 17.9655 108.041 16.902C106.976 15.8241 106.443 14.4804 106.443 12.8708C106.443 11.2468 106.968 9.90305 108.019 8.83956C109.084 7.77607 110.393 7.24433 111.948 7.24433C113.3 7.24433 114.408 7.59643 115.272 8.30063C116.135 8.99046 116.689 9.8312 116.934 10.8228L114.365 11.6851C114.02 10.4923 113.236 9.89587 112.012 9.89587Z" fill="black" fill-opacity="0.9"/>
</svg>
