<svg width="27" height="27" viewBox="0 0 27 27" fill="none" xmlns="http://www.w3.org/2000/svg">
<path d="M7.605 5.44539L5.58 3.43164L3.99375 5.01789L6.0075 7.03164L7.605 5.44539ZM4.5 11.8129H1.125V14.0629H4.5V11.8129ZM14.625 0.619141H12.375V3.93789H14.625V0.619141ZM23.0063 5.01789L21.42 3.43164L19.4062 5.44539L20.9925 7.03164L23.0063 5.01789ZM19.395 20.4304L21.4088 22.4554L22.995 20.8691L20.97 18.8554L19.395 20.4304ZM22.5 11.8129V14.0629H25.875V11.8129H22.5ZM13.5 6.18789C9.77625 6.18789 6.75 9.21414 6.75 12.9379C6.75 16.6616 9.77625 19.6879 13.5 19.6879C17.2237 19.6879 20.25 16.6616 20.25 12.9379C20.25 9.21414 17.2237 6.18789 13.5 6.18789ZM12.375 25.2566H14.625V21.9379H12.375V25.2566ZM3.99375 20.8579L5.58 22.4441L7.59375 20.4191L6.0075 18.8329L3.99375 20.8579Z" fill="white" fill-opacity="0.9"/>
</svg>
