<svg width="27" height="26" viewBox="0 0 27 26" fill="none" xmlns="http://www.w3.org/2000/svg">
<path d="M13.9591 25.801C10.4432 25.801 7.0712 24.4043 4.58503 21.9181C2.09886 19.432 0.702148 16.06 0.702148 12.544C0.702148 7.17267 3.78783 2.35672 8.56549 0.277313C8.73387 0.203928 8.92045 0.182961 9.10092 0.217145C9.28139 0.251329 9.44738 0.339077 9.57726 0.468958C9.70714 0.598838 9.79489 0.764827 9.82907 0.945296C9.86326 1.12577 9.84229 1.31235 9.76891 1.48073C9.22034 2.74014 8.93063 4.35327 8.93063 6.14411C8.93063 12.4458 14.0574 17.5726 20.3591 17.5726C22.1499 17.5726 23.763 17.2828 25.0225 16.7343C25.1908 16.6609 25.3774 16.6399 25.5579 16.6741C25.7384 16.7083 25.9043 16.796 26.0342 16.9259C26.1641 17.0558 26.2519 17.2218 26.286 17.4023C26.3202 17.5827 26.2993 17.7693 26.2259 17.9377C24.1465 22.7154 19.3305 25.801 13.9591 25.801Z" fill="black" fill-opacity="0.9"/>
</svg>
