<svg width="25" height="24" viewBox="0 0 25 24" fill="none" xmlns="http://www.w3.org/2000/svg">
<path d="M21.3164 11.7275L3.98014 3.03456C3.90967 2.99932 3.82885 2.99103 3.75216 3.00969C3.576 3.05321 3.46616 3.23147 3.50968 3.40972L5.29616 10.7098C5.3231 10.8197 5.40393 10.9088 5.51169 10.944L8.57274 11.9949L5.51377 13.0458C5.406 13.0831 5.32517 13.1701 5.3003 13.28L3.50968 20.5904C3.49103 20.6671 3.49932 20.748 3.53455 20.8164C3.61538 20.9801 3.81434 21.0464 3.98014 20.9656L21.3164 12.3224C21.3806 12.2913 21.4324 12.2374 21.4656 12.1752C21.5464 12.0094 21.4801 11.8104 21.3164 11.7275ZM5.55314 18.5136L6.5956 14.2521L12.7135 12.1524C12.7612 12.1358 12.8006 12.0985 12.8172 12.0488C12.8462 11.9617 12.8006 11.8685 12.7135 11.8374L6.5956 9.73978L5.55729 5.49487L18.5724 12.0218L5.55314 18.5136Z" fill="#1D2039"/>
</svg>
