<svg width="25" height="25" viewBox="0 0 25 25" fill="none" xmlns="http://www.w3.org/2000/svg">
<path d="M21.3164 12.2275L3.98014 3.53456C3.90967 3.49932 3.82885 3.49103 3.75216 3.50969C3.576 3.55321 3.46616 3.73147 3.50968 3.90972L5.29616 11.2098C5.3231 11.3197 5.40393 11.4088 5.51169 11.444L8.57274 12.4949L5.51377 13.5458C5.406 13.5831 5.32517 13.6701 5.3003 13.78L3.50968 21.0904C3.49103 21.1671 3.49932 21.248 3.53455 21.3164C3.61538 21.4801 3.81434 21.5464 3.98014 21.4656L21.3164 12.8224C21.3806 12.7913 21.4324 12.7374 21.4656 12.6752C21.5464 12.5094 21.4801 12.3104 21.3164 12.2275ZM5.55314 19.0136L6.5956 14.7521L12.7135 12.6524C12.7612 12.6358 12.8006 12.5985 12.8172 12.5488C12.8462 12.4617 12.8006 12.3685 12.7135 12.3374L6.5956 10.2398L5.55729 5.99487L18.5724 12.5218L5.55314 19.0136Z" fill="rgba(255, 255, 255, 0.4)"/>
</svg>
