<?xml version="1.0" encoding="utf-8"?>
<!-- Generator: Adobe Illustrator 24.0.1, SVG Export Plug-In . SVG Version: 6.00 Build 0)  -->
<svg version="1.1" id="Layer_1" focusable="false" xmlns="http://www.w3.org/2000/svg" xmlns:xlink="http://www.w3.org/1999/xlink"
	 x="0px" y="0px" viewBox="0 0 512 512" style="enable-background:new 0 0 512 512;" xml:space="preserve">
<path fill='#58AE67' d="M256,8C119,8,8,119,8,256s111,248,248,248s248-111,248-248S393,8,256,8z M256,456c-110.5,0-200-89.5-200-200
	S145.5,56,256,56s200,89.5,200,200S366.5,456,256,456z"/>
<path fill='#58AE67' d="M441.4,187l-22.5-22.7c-4.7-4.7-12.3-4.7-17-0.1L228.6,336.5c-3.7,3.7-3.7,9.7-0.1,13.4l24.2,24.4c4.7,4.7,12.3,4.7,17,0.1
	l171.7-170.3C446.1,199.3,446.1,191.7,441.4,187z"/>
<path fill='#58AE67' d="M342.2,186.3l-22.5-22.7c-4.7-4.7-12.3-4.7-17-0.1L161.3,303.7l-59.8-60.3c-4.7-4.7-12.3-4.7-17-0.1l-22.7,22.5
	c-4.7,4.7-4.7,12.3-0.1,17l90.8,91.5c4.7,4.7,12.3,4.7,17,0.1l172.6-171.2C346.8,198.6,346.9,191,342.2,186.3z"/>
</svg>
